# xmcd
# 
# Track frame offsets:
#     150
#     18875
#     39652
# 
# Disc length: 820
# 
# Revision: 5
# Processed by: cddbd v1.5.2PL0 Copyright (c) Steve Scherf et al.
# Submitted via: fre:ac v1.0.17
# 
DISCID=19033203
DTITLE=Tommy Emmanuel - The Journey
DYEAR=1993
DGENRE=Instrumental
TTITLE0=The Journey
TTITLE1=Hellos and Goodbyes
TTITLE2=The Journey [Pine Creek Mix]
EXTD=
EXTT0=
EXTT1=
EXTT2=
PLAYORDER=
